<svg version="1" xmlns="http://www.w3.org/2000/svg" width="682.667" height="682.667" viewBox="0 0 512.000000 512.000000"><path d="M387.7 120.6c-.1.1-3.3.4-7.2.8-7.6.6-9.1.9-21 3.2-38 7.3-69.5 29.2-88.3 61.1-6.8 11.5-13.7 30.5-15.7 43.3-.4 2.5-1 5.4-1.2 6.5-.3 1.1-.7 10.8-.8 21.5-.4 24.6 1.2 37.3 7.2 55.5 9.3 28.5 29.5 52.2 57.3 67.2 5.6 3 20.9 9.2 24.4 9.9 1 .2 4.2 1 7 1.8 7.2 2 19.1 4 30.6 5.1 8 .8 33.8.9 37.7.1 1.5-.3 5.5-.8 8.8-1.1 7.7-.8 28-4.9 33.9-6.9 20.4-6.9 33.9-16.8 36.7-26.8 1.7-6 1.8-104.5.1-110.4-1.6-5.7-5.9-10.8-11.2-13.6-4.5-2.3-4.8-2.3-46-2.6-22.8-.2-43.4 0-45.6.3-6.5.9-12.1 5.2-15.1 11.4-2.4 4.8-2.7 6.6-2.6 15 0 7.3.6 11.2 2.3 16.1 3.7 10.5 1.1 9.6 29 9.6h24.5l.3 24.5.2 24.6-5.7 1.7c-3.2 1-7.1 2.2-8.8 2.7-1.6.6-8.2 1.2-14.5 1.4-38.6 1.3-65.6-16.3-76.5-49.9-1.2-3.9-2.6-9.1-3-11.6-.4-2.5-.9-5.4-1.1-6.5-.6-3-.7-28.2-.1-29.2.3-.4.8-2.9 1.1-5.4 2.3-17.4 13.9-37.1 28.4-48.3 8.2-6.3 21.9-12.6 30.7-14.2 12.3-2.2 25.5-2.5 38.5-1 10.4 1.3 22.6 5.2 35.8 11.7 13.9 6.8 13.4 6.8 20.5-1.1 5.7-6.4 8.7-14 8.7-22.3 0-22-25.1-38.6-65.4-43.2-5.3-.7-33.3-1.4-33.9-.9zM22.4 125.7l-9.1 1.5v119.6c0 129 0 128.7 5.2 136.2 5 7.3 14.6 10.3 31.9 10.2 6.1 0 12.7-.3 14.6-.6 8.9-1.3 15.3-2.6 15.8-3.1.3-.3.5-23.5.5-51.6v-51.1l4.1 4.4c2.3 2.4 5.6 6.1 7.5 8.3 1.9 2.2 5.5 6.3 8 9.1s7.5 8.4 11.1 12.4c3.6 4.1 8.5 9.7 11 12.5 12.1 13.8 17.6 19.9 18.5 20.9.6.6 4.4 4.9 8.5 9.5 19.8 22.3 28.3 28.2 43.4 30 21.3 2.5 40-10.7 42.3-29.7.3-2.6.6-4.9.7-5.2 0-.3-3.3-3.9-7.4-8.1-13.8-13.9-27.7-28.6-62.1-65.3-6.4-6.9-12.8-13.8-20.3-22.1l-3.6-3.9 35.3-35.6c19.9-19.9 37.2-38.1 39.4-41.5 5.4-8 7.5-14.5 7.5-23.1.2-18-13.4-30.8-34.8-32.9-3.8-.4-8.2-.8-9.7-1-3.2-.3-4.5.7-11.3 8.6-5.2 5.9-17.2 19.5-18.9 21.3-.5.6-4.4 4.9-8.5 9.6-4.1 4.7-9.1 10.3-11.1 12.5-2 2.2-7.6 8.5-12.4 14-4.9 5.5-9.1 10.2-9.4 10.5-.3.3-2.1 2.3-4 4.5-4.3 5.1-13.3 15.2-19.2 21.7l-4.5 5.1-.1-43c-.1-37.5-.3-43.8-1.8-48.9-2.1-7.1-7-12.3-14.2-14.9-6.5-2.4-30.4-2.8-42.9-.8z"/></svg>